<svg xmlns="http://www.w3.org/2000/svg" viewBox="0 0 200 110" role="img" aria-label="Zusatzzeichen 1024-13 Lastkraftwagen mit Anhänger frei"><title>Zusatzzeichen 1024-13 Lastkraftwagen mit Anhänger frei</title><rect x="1" y="1" width="198" height="108" rx="6" fill="#FFFFFF" stroke="#9CA3AF" stroke-width="1"/><rect x="5" y="5" width="190" height="100" rx="3" fill="none" stroke="#111111" stroke-width="2.5"/><svg x="10" y="11" width="88" height="88" viewBox="0 0 100 100"><g transform="translate(0 20) scale(0.6)"><path d="M6 66 V42 L14 32 H32 V66 Z" fill="#111111"/><path d="M13 38 H27 V48 H10 Z" fill="#FFFFFF"/><rect x="34" y="24" width="60" height="42" rx="3" fill="#111111"/><rect x="6" y="64" width="88" height="10" fill="#111111"/><circle cx="20" cy="76" r="8" fill="#111111"/><circle cx="58" cy="76" r="8" fill="#111111"/><circle cx="78" cy="76" r="8" fill="#111111"/><circle cx="20" cy="76" r="3" fill="#FFFFFF"/><circle cx="58" cy="76" r="3" fill="#FFFFFF"/><circle cx="78" cy="76" r="3" fill="#FFFFFF"/></g><rect x="56" y="56" width="6" height="4" fill="#111111"/><rect x="62" y="34" width="34" height="30" rx="2" fill="#111111"/><circle cx="71" cy="70" r="6" fill="#111111"/><circle cx="87" cy="70" r="6" fill="#111111"/><circle cx="71" cy="70" r="2" fill="#FFFFFF"/><circle cx="87" cy="70" r="2" fill="#FFFFFF"/></svg><text x="148" y="70" font-size="34" font-family="'DIN Alternate','Helvetica Neue',Arial,sans-serif" font-weight="700" fill="#111111" text-anchor="middle" >frei</text></svg>
