<svg xmlns="http://www.w3.org/2000/svg" viewBox="0 0 120 120" role="img" aria-label="Zeichen 257-51 Verbot für Gespannfuhrwerke"><title>Zeichen 257-51 Verbot für Gespannfuhrwerke</title><circle cx="60" cy="60" r="57" fill="#C1121C" stroke="#9CA3AF" stroke-width="1"/><circle cx="60" cy="60" r="44" fill="#FFFFFF"/><svg x="23" y="23" width="74" height="74" viewBox="0 0 100 100"><g transform="translate(0 18) scale(0.64)"><ellipse cx="54" cy="58" rx="24" ry="11" fill="#111111"/><path d="M40 50 L30 30 L22 26 L8 34 L12 44 L22 46 L32 66 L44 66 Z" fill="#111111"/><path d="M26 28 L23 19 M31 29 L33 20" stroke="#111111" stroke-width="3" stroke-linecap="round"/><path d="M36 66 L28 88 M42 66 L46 88 M64 66 L60 88 M70 66 L78 88" stroke="#111111" stroke-width="5" stroke-linecap="round" fill="none"/><path d="M76 52 Q90 56 88 74" stroke="#111111" stroke-width="4" stroke-linecap="round" fill="none"/></g><path d="M46 56 H60" stroke="#111111" stroke-width="4"/><rect x="58" y="38" width="36" height="22" rx="2" fill="#111111"/><circle cx="76" cy="68" r="13" fill="#111111"/><circle cx="76" cy="68" r="4" fill="#FFFFFF"/></svg></svg>
