<svg xmlns="http://www.w3.org/2000/svg" viewBox="0 0 120 190" role="img" aria-label="Zeichen 605-11 Schmale Leitbake, Vorbeifahrt links"><title>Zeichen 605-11 Schmale Leitbake, Vorbeifahrt links</title><rect x="56" y="168" width="8" height="14" fill="#374151"/><rect x="40" y="180" width="40" height="5" rx="2" fill="#374151"/><defs><clipPath id="c8"><rect x="0" y="0" width="22" height="160"/></clipPath></defs><g transform="translate(49 8)"><rect width="22" height="160" fill="#FFFFFF"/><g fill="#C1121C" clip-path="url(#c8)"><path d="M0 -112 L22 -134 V-106 L0 -84 Z"/><path d="M0 -56 L22 -78 V-50 L0 -28 Z"/><path d="M0 0 L22 -22 V6 L0 28 Z"/><path d="M0 56 L22 34 V62 L0 84 Z"/><path d="M0 112 L22 90 V118 L0 140 Z"/><path d="M0 168 L22 146 V174 L0 196 Z"/><path d="M0 224 L22 202 V230 L0 252 Z"/></g><rect width="22" height="160" fill="none" stroke="#111111" stroke-width="1.5"/></g></svg>
