<svg xmlns="http://www.w3.org/2000/svg" viewBox="0 0 240 130" role="img" aria-label="Zeichen 626-10 Leitplatte, Vorbeifahrt links"><title>Zeichen 626-10 Leitplatte, Vorbeifahrt links</title><defs><clipPath id="c13"><rect x="0" y="0" width="220" height="100"/></clipPath></defs><g transform="translate(10 8)"><rect width="220" height="100" fill="#FFFFFF"/><g fill="#C1121C" clip-path="url(#c13)"><path d="M0 -120 L220 -252 V-222 L0 -90 Z"/><path d="M0 -60 L220 -192 V-162 L0 -30 Z"/><path d="M0 0 L220 -132 V-102 L0 30 Z"/><path d="M0 60 L220 -72 V-42 L0 90 Z"/><path d="M0 120 L220 -12 V18 L0 150 Z"/><path d="M0 180 L220 48 V78 L0 210 Z"/><path d="M0 240 L220 108 V138 L0 270 Z"/><path d="M0 300 L220 168 V198 L0 330 Z"/><path d="M0 360 L220 228 V258 L0 390 Z"/><path d="M0 420 L220 288 V318 L0 450 Z"/></g><rect width="220" height="100" fill="none" stroke="#111111" stroke-width="1.5"/></g><rect x="54" y="110" width="8" height="12" fill="#374151"/><rect x="178" y="110" width="8" height="12" fill="#374151"/></svg>
